<?xml version="1.0" standalone="no"?><!DOCTYPE svg PUBLIC "-//W3C//DTD SVG 1.1//EN" "http://www.w3.org/Graphics/SVG/1.1/DTD/svg11.dtd"><svg t="1704247222404" class="icon" viewBox="0 0 1024 1024" version="1.1" xmlns="http://www.w3.org/2000/svg" p-id="7901" xmlns:xlink="http://www.w3.org/1999/xlink" width="200" height="200"><path d="M377.2 879.4c62.6 0 121.4-24.4 165.6-68.6l90.7-90.7c14.1-14.1 14.1-36.9 0-50.9-14.1-14.1-36.9-14.1-50.9 0l-90.7 90.7c-30.6 30.6-71.4 47.5-114.7 47.5s-84.1-16.9-114.7-47.5c-63.2-63.2-63.2-166.1 0-229.4l90.6-90.6c14.1-14.1 14.1-36.9 0-50.9-14.1-14.1-36.9-14.1-50.9 0l-90.6 90.6c-44.2 44.2-68.6 103-68.6 165.6s24.4 121.4 68.6 165.6c44.2 44.2 103 68.6 165.6 68.6zM707.2 81c-62.6 0-121.4 24.4-165.6 68.6l-90.7 90.7c-14.1 14.1-14.1 36.9 0 50.9 14.1 14.1 36.9 14.1 50.9 0l90.7-90.7c63.2-63.2 166.1-63.2 229.4 0s63.2 166.1 0 229.4L731 520.8c-14.1 14.1-14.1 36.9 0 50.9 7 7 16.2 10.5 25.5 10.5 9.2 0 18.4-3.5 25.5-10.5l90.9-90.9c44.2-44.2 68.6-103 68.6-165.6S917 193.9 872.8 149.6C828.5 105.4 769.7 81 707.2 81z" fill="#1296db" p-id="7902"></path><path d="M434.3 616.4c9.2 0 18.4-3.5 25.5-10.5l208-208c14.1-14.1 14.1-36.9 0-50.9-14.1-14.1-36.9-14.1-50.9 0l-208 208c-14.1 14.1-14.1 36.9 0 50.9 7 7 16.2 10.5 25.4 10.5z" fill="#1296db" p-id="7903"></path></svg>