<?xml version="1.0" standalone="no"?><!DOCTYPE svg PUBLIC "-//W3C//DTD SVG 1.1//EN" "http://www.w3.org/Graphics/SVG/1.1/DTD/svg11.dtd"><svg t="1704247281492" class="icon" viewBox="0 0 1024 1024" version="1.1" xmlns="http://www.w3.org/2000/svg" p-id="8925" xmlns:xlink="http://www.w3.org/1999/xlink" width="200" height="200"><path d="M335.815111 485.489778a48.071111 48.071111 0 0 1 4.380445 63.089778l-4.266667 4.949333-72.817778 72.988444a83.968 83.968 0 0 0-5.404444 112.810667l5.461333 5.973333 15.928889 15.872a84.366222 84.366222 0 0 0 113.152 5.233778L398.222222 760.945778l72.533334-72.817778a48.071111 48.071111 0 0 1 63.089777-4.323556l4.949334 4.323556c18.773333 18.773333 18.773333 49.208889 0 68.039111L466.488889 828.757333a180.792889 180.792889 0 0 1-255.317333 0.512l-15.985778-15.985777a179.939556 179.939556 0 0 1-0.284445-254.577778l72.931556-73.102222a48.128 48.128 0 0 1 68.039111-0.113778z m287.516445 85.162666L768 715.093333a48.014222 48.014222 0 0 1 4.323556 62.976l-4.266667 4.892445-0.056889 0.056889H768a48.128 48.128 0 0 1-68.039111 0L555.235556 638.691556a48.014222 48.014222 0 0 1-4.323556-62.976l4.266667-4.892445 0.056889-0.056889 0.056888-0.056889a48.128 48.128 0 0 1 68.039112 0z m189.553777-375.921777l15.985778 15.985777a179.939556 179.939556 0 0 1 0.284445 254.577778L734.208 560.355556a48.128 48.128 0 0 1-72.419556-63.032889l4.323556-4.949334 94.833778-94.890666a83.968 83.968 0 0 0 5.347555-112.810667l-5.461333-5.973333-15.928889-15.872a84.366222 84.366222 0 0 0-113.152-5.233778L625.777778 263.054222 531.228444 357.831111a48.128 48.128 0 0 1-72.419555-63.032889l4.323555-4.949333L557.511111 195.242667a180.792889 180.792889 0 0 1 255.317333-0.512zM308.337778 255.488l144.725333 144.384a48.014222 48.014222 0 0 1 0 67.982222 48.128 48.128 0 0 1-68.039111 0L240.298667 323.527111a48.014222 48.014222 0 0 1-0.056889-67.925333l0.056889-0.056889a48.128 48.128 0 0 1 68.039111 0z" fill="#d81e06" opacity=".5" p-id="8926"></path></svg>